<svg xmlns="http://www.w3.org/2000/svg" xmlns:xlink="http://www.w3.org/1999/xlink" width="200" zoomAndPan="magnify" viewBox="0 0 150 37.5" height="50" preserveAspectRatio="xMidYMid meet" version="1.0"><defs><g/></defs><g fill="#eaf0ec" fill-opacity="1"><g transform="translate(0.998407, 31.579134)"><g><path d="M 9.546875 0 L 5.96875 -12.4375 L 5.1875 0 L 1 0 L 1.5 -7.953125 C 1.695312 -11.171875 1.847656 -13.8125 1.953125 -15.875 L 9.03125 -15.875 L 11.53125 -6.5625 L 14.03125 -15.875 L 21.109375 -15.875 C 21.222656 -13.8125 21.378906 -11.171875 21.578125 -7.953125 L 22.0625 0 L 17.890625 0 L 17.09375 -12.4375 L 13.515625 0 Z M 9.546875 0 "/></g></g></g><g fill="#eaf0ec" fill-opacity="1"><g transform="translate(24.059214, 31.579134)"><g><path d="M 7.25 -2.71875 C 7.863281 -2.75 8.367188 -2.984375 8.765625 -3.421875 C 9.160156 -3.867188 9.359375 -4.398438 9.359375 -5.015625 L 9.359375 -11.53125 L 13.546875 -11.53125 L 13.546875 0 L 9.5 0 L 9.359375 -1.109375 C 8.421875 -0.265625 7.21875 0.15625 5.75 0.15625 C 4.269531 0.15625 3.109375 -0.296875 2.265625 -1.203125 C 1.421875 -2.117188 1 -3.390625 1 -5.015625 L 1 -11.53125 L 5.1875 -11.53125 L 5.1875 -5.40625 C 5.1875 -3.613281 5.875 -2.71875 7.25 -2.71875 Z M 7.25 -2.71875 "/></g></g></g><g fill="#eaf0ec" fill-opacity="1"><g transform="translate(38.872394, 31.579134)"><g><path d="M 12.296875 -3.828125 C 12.296875 -2.546875 11.800781 -1.5625 10.8125 -0.875 C 9.832031 -0.1875 8.4375 0.15625 6.625 0.15625 C 3.164062 0.15625 1.203125 -1.144531 0.734375 -3.75 L 4.71875 -3.75 C 4.957031 -3.0625 5.546875 -2.71875 6.484375 -2.71875 C 7.566406 -2.71875 8.109375 -2.960938 8.109375 -3.453125 C 8.109375 -3.609375 7.921875 -3.742188 7.546875 -3.859375 L 5.96875 -4.171875 C 5.175781 -4.304688 4.523438 -4.441406 4.015625 -4.578125 C 3.503906 -4.710938 2.984375 -4.90625 2.453125 -5.15625 C 1.921875 -5.40625 1.523438 -5.738281 1.265625 -6.15625 C 1.003906 -6.570312 0.875 -7.082031 0.875 -7.6875 C 0.875 -8.988281 1.335938 -10 2.265625 -10.71875 C 3.191406 -11.445312 4.546875 -11.8125 6.328125 -11.8125 C 9.578125 -11.8125 11.445312 -10.503906 11.9375 -7.890625 L 7.890625 -7.890625 C 7.804688 -8.148438 7.722656 -8.335938 7.640625 -8.453125 C 7.554688 -8.566406 7.40625 -8.671875 7.1875 -8.765625 C 6.96875 -8.867188 6.679688 -8.921875 6.328125 -8.921875 C 5.472656 -8.921875 5.046875 -8.671875 5.046875 -8.171875 C 5.046875 -8.023438 5.125 -7.890625 5.28125 -7.765625 C 5.445312 -7.648438 5.679688 -7.550781 5.984375 -7.46875 C 6.296875 -7.394531 6.59375 -7.328125 6.875 -7.265625 C 7.15625 -7.203125 7.507812 -7.132812 7.9375 -7.0625 C 8.363281 -6.988281 8.675781 -6.929688 8.875 -6.890625 C 9.957031 -6.660156 10.796875 -6.304688 11.390625 -5.828125 C 11.992188 -5.359375 12.296875 -4.691406 12.296875 -3.828125 Z M 12.296875 -3.828125 "/></g></g></g><g fill="#eaf0ec" fill-opacity="1"><g transform="translate(51.759318, 31.579134)"><g><path d="M 5.453125 -5.15625 L 5.453125 0 L 1.28125 0 L 1.28125 -15.875 L 5.453125 -15.875 L 5.453125 -7.65625 L 5.9375 -7.65625 L 9.171875 -11.53125 L 14.140625 -11.53125 L 9.75 -6.15625 L 14.109375 0 L 9.171875 0 Z M 5.453125 -5.15625 "/></g></g></g><g fill="#eaf0ec" fill-opacity="1"><g transform="translate(66.084154, 31.579134)"><g/></g></g><g fill="#eaf0ec" fill-opacity="1"><g transform="translate(71.211792, 31.579134)"><g><path d="M 16.90625 0 L 12.484375 0 L 11.375 -3.234375 L 5.734375 -3.234375 L 4.609375 0 L 0.1875 0 L 5.40625 -15.875 L 11.703125 -15.875 Z M 10.671875 -6.515625 L 8.546875 -13.03125 L 6.4375 -6.515625 Z M 10.671875 -6.515625 "/></g></g></g><g fill="#eaf0ec" fill-opacity="1"><g transform="translate(88.303923, 31.579134)"><g><path d="M 5.40625 -3.875 C 5.40625 -3.082031 5.921875 -2.648438 6.953125 -2.578125 L 6.953125 0.15625 C 6.460938 0.25 5.898438 0.296875 5.265625 0.296875 C 2.566406 0.296875 1.21875 -1.421875 1.21875 -4.859375 L 1.21875 -15.875 L 5.40625 -15.875 Z M 5.40625 -3.875 "/></g></g></g><g fill="#eaf0ec" fill-opacity="1"><g transform="translate(95.791905, 31.579134)"><g><path d="M 5.453125 -10.390625 C 6.160156 -11.335938 7.347656 -11.8125 9.015625 -11.8125 C 10.492188 -11.8125 11.660156 -11.351562 12.515625 -10.4375 C 13.378906 -9.519531 13.8125 -8.25 13.8125 -6.625 L 13.8125 0 L 9.640625 0 L 9.640625 -6.25 C 9.640625 -8.03125 8.992188 -8.921875 7.703125 -8.921875 C 7.140625 -8.921875 6.625 -8.695312 6.15625 -8.25 C 5.6875 -7.800781 5.453125 -7.285156 5.453125 -6.703125 L 5.453125 0 L 1.28125 0 L 1.28125 -15.875 L 5.453125 -15.875 Z M 5.453125 -10.390625 "/></g></g></g><g fill="#eaf0ec" fill-opacity="1"><g transform="translate(110.605084, 31.579134)"><g><path d="M 8.765625 -7.296875 C 8.765625 -8.378906 8.128906 -8.921875 6.859375 -8.921875 C 5.867188 -8.921875 5.238281 -8.660156 4.96875 -8.140625 L 1.28125 -8.140625 C 1.96875 -10.585938 3.785156 -11.8125 6.734375 -11.8125 C 9.066406 -11.8125 10.6875 -11.347656 11.59375 -10.421875 C 12.5 -9.492188 12.953125 -7.929688 12.953125 -5.734375 L 12.953125 0 L 8.953125 0 L 8.765625 -1.109375 C 7.878906 -0.265625 6.523438 0.15625 4.703125 0.15625 C 3.609375 0.15625 2.671875 -0.148438 1.890625 -0.765625 C 1.117188 -1.378906 0.734375 -2.273438 0.734375 -3.453125 C 0.734375 -4.265625 0.972656 -4.941406 1.453125 -5.484375 C 1.929688 -6.023438 2.597656 -6.414062 3.453125 -6.65625 C 4.316406 -6.90625 5.15625 -7.070312 5.96875 -7.15625 C 6.78125 -7.25 7.710938 -7.296875 8.765625 -7.296875 Z M 4.90625 -3.578125 C 4.90625 -3.304688 5.007812 -3.101562 5.21875 -2.96875 C 5.425781 -2.832031 5.640625 -2.753906 5.859375 -2.734375 C 6.078125 -2.722656 6.40625 -2.71875 6.84375 -2.71875 C 7.4375 -2.71875 8.078125 -2.96875 8.765625 -3.46875 L 8.765625 -4.71875 C 7.828125 -4.71875 6.945312 -4.625 6.125 -4.4375 C 5.3125 -4.257812 4.90625 -3.972656 4.90625 -3.578125 Z M 4.90625 -3.578125 "/></g></g></g><g fill="#eaf0ec" fill-opacity="1"><g transform="translate(124.414439, 31.579134)"><g><path d="M 9.640625 -11.53125 L 14.25 -11.53125 L 10.265625 -0.46875 C 9.390625 1.976562 8.285156 3.632812 6.953125 4.5 C 6.203125 4.976562 5.273438 5.21875 4.171875 5.21875 C 2.890625 5.21875 1.890625 5.125 1.171875 4.9375 C 1.109375 4.914062 1.035156 4.796875 0.953125 4.578125 C 0.878906 4.367188 0.785156 4.0625 0.671875 3.65625 C 0.566406 3.257812 0.503906 3.019531 0.484375 2.9375 L 0.484375 1.84375 C 1.097656 2.082031 1.675781 2.203125 2.21875 2.203125 C 2.976562 2.203125 3.515625 2.050781 3.828125 1.75 C 4.148438 1.445312 4.3125 0.925781 4.3125 0.1875 C 4.3125 -0.113281 4.25 -0.4375 4.125 -0.78125 L 0.1875 -11.53125 L 4.75 -11.53125 L 7.21875 -2.71875 Z M 0.484375 4.671875 C 0.335938 3.304688 0.300781 2.625 0.375 2.625 C 0.394531 2.644531 0.429688 2.75 0.484375 2.9375 Z M 0.484375 4.671875 "/></g></g></g><g fill="#eaf0ec" fill-opacity="1"><g transform="translate(138.847795, 31.579134)"><g><path d="M 6.5625 0.15625 C 3.8125 0.15625 2.4375 -1.613281 2.4375 -5.15625 L 2.4375 -8.65625 L 0.46875 -8.65625 L 0.46875 -11.53125 L 2.4375 -11.53125 L 2.4375 -14.953125 L 6.625 -16.015625 L 6.625 -11.53125 L 9.25 -11.53125 L 9.25 -8.65625 L 6.625 -8.65625 L 6.625 -4.703125 C 6.625 -3.679688 7.164062 -3.171875 8.25 -3.171875 L 8.734375 -3.171875 C 8.898438 -3.171875 9.070312 -3.191406 9.25 -3.234375 L 9.25 -0.15625 C 8.625 0.0195312 7.726562 0.125 6.5625 0.15625 Z M 6.5625 0.15625 "/></g></g></g></svg>