<svg xmlns="http://www.w3.org/2000/svg" xmlns:xlink="http://www.w3.org/1999/xlink" width="46" zoomAndPan="magnify" viewBox="0 0 34.5 37.499999" height="50" preserveAspectRatio="xMidYMid meet" version="1.0"><defs><g/><clipPath id="a8399522bd"><path d="M 3.832031 4.5625 L 17 4.5625 L 17 32.65625 L 3.832031 32.65625 Z M 3.832031 4.5625 " clip-rule="nonzero"/></clipPath><clipPath id="1ba1a8336b"><path d="M 10 5 L 30.445312 5 L 30.445312 32.65625 L 10 32.65625 Z M 10 5 " clip-rule="nonzero"/></clipPath><clipPath id="397d5eb6cc"><path d="M 13 15 L 30.445312 15 L 30.445312 32.65625 L 13 32.65625 Z M 13 15 " clip-rule="nonzero"/></clipPath></defs><g fill="#ffffff" fill-opacity="1"><g transform="translate(18.629999, 20.277858)"><g><path d="M 0.546875 0.015625 C 0.460938 0.015625 0.390625 -0.00390625 0.328125 -0.046875 C 0.265625 -0.0859375 0.210938 -0.144531 0.171875 -0.21875 C 0.128906 -0.300781 0.109375 -0.40625 0.109375 -0.53125 C 0.109375 -0.65625 0.128906 -0.753906 0.171875 -0.828125 C 0.210938 -0.910156 0.265625 -0.972656 0.328125 -1.015625 C 0.398438 -1.054688 0.476562 -1.078125 0.5625 -1.078125 C 0.632812 -1.078125 0.695312 -1.0625 0.75 -1.03125 C 0.8125 -1.007812 0.863281 -0.96875 0.90625 -0.90625 L 0.921875 -0.90625 L 0.921875 -1.484375 L 1.078125 -1.484375 L 1.078125 0 L 0.921875 0 L 0.921875 -0.15625 L 0.90625 -0.15625 C 0.875 -0.101562 0.828125 -0.0625 0.765625 -0.03125 C 0.703125 0 0.628906 0.015625 0.546875 0.015625 Z M 0.59375 -0.125 C 0.695312 -0.125 0.773438 -0.15625 0.828125 -0.21875 C 0.890625 -0.289062 0.921875 -0.394531 0.921875 -0.53125 C 0.921875 -0.664062 0.890625 -0.765625 0.828125 -0.828125 C 0.773438 -0.898438 0.695312 -0.9375 0.59375 -0.9375 C 0.5 -0.9375 0.421875 -0.898438 0.359375 -0.828125 C 0.304688 -0.765625 0.28125 -0.664062 0.28125 -0.53125 C 0.28125 -0.257812 0.382812 -0.125 0.59375 -0.125 Z M 0.59375 -0.125 "/></g></g><g transform="translate(19.89776, 20.277858)"><g><path d="M 0.546875 0.015625 C 0.460938 0.015625 0.390625 -0.00390625 0.328125 -0.046875 C 0.265625 -0.0859375 0.210938 -0.144531 0.171875 -0.21875 C 0.128906 -0.300781 0.109375 -0.40625 0.109375 -0.53125 C 0.109375 -0.65625 0.128906 -0.753906 0.171875 -0.828125 C 0.210938 -0.910156 0.265625 -0.972656 0.328125 -1.015625 C 0.398438 -1.054688 0.476562 -1.078125 0.5625 -1.078125 C 0.632812 -1.078125 0.695312 -1.0625 0.75 -1.03125 C 0.8125 -1.007812 0.863281 -0.96875 0.90625 -0.90625 L 0.921875 -0.90625 L 0.921875 -1.484375 L 1.078125 -1.484375 L 1.078125 0 L 0.921875 0 L 0.921875 -0.15625 L 0.90625 -0.15625 C 0.875 -0.101562 0.828125 -0.0625 0.765625 -0.03125 C 0.703125 0 0.628906 0.015625 0.546875 0.015625 Z M 0.59375 -0.125 C 0.695312 -0.125 0.773438 -0.15625 0.828125 -0.21875 C 0.890625 -0.289062 0.921875 -0.394531 0.921875 -0.53125 C 0.921875 -0.664062 0.890625 -0.765625 0.828125 -0.828125 C 0.773438 -0.898438 0.695312 -0.9375 0.59375 -0.9375 C 0.5 -0.9375 0.421875 -0.898438 0.359375 -0.828125 C 0.304688 -0.765625 0.28125 -0.664062 0.28125 -0.53125 C 0.28125 -0.257812 0.382812 -0.125 0.59375 -0.125 Z M 0.59375 -0.125 "/></g></g><g transform="translate(21.165521, 20.277858)"><g><path d="M 0.234375 0 L 0.234375 -0.9375 L 0.046875 -0.9375 L 0.046875 -1.0625 L 0.234375 -1.0625 C 0.222656 -1.101562 0.21875 -1.144531 0.21875 -1.1875 C 0.21875 -1.257812 0.234375 -1.316406 0.265625 -1.359375 C 0.296875 -1.410156 0.335938 -1.445312 0.390625 -1.46875 C 0.441406 -1.488281 0.5 -1.5 0.5625 -1.5 C 0.664062 -1.5 0.75 -1.476562 0.8125 -1.4375 L 0.75 -1.328125 L 0.734375 -1.328125 C 0.691406 -1.359375 0.632812 -1.375 0.5625 -1.375 C 0.5 -1.375 0.453125 -1.359375 0.421875 -1.328125 C 0.390625 -1.296875 0.375 -1.25 0.375 -1.1875 C 0.375 -1.15625 0.378906 -1.113281 0.390625 -1.0625 L 0.734375 -1.0625 L 0.734375 -0.9375 L 0.390625 -0.9375 L 0.390625 0 Z M 0.234375 0 "/></g></g></g><g clip-path="url(#a8399522bd)"><path fill="#d9d9d9" d="M 8.816406 32.40625 L 8.816406 16.648438 C 10.1875 18.03125 11.515625 19.367188 12.894531 20.761719 L 16.417969 17.207031 C 12.183594 12.964844 8.011719 8.785156 3.832031 4.59375 L 3.832031 32.40625 Z M 8.816406 32.40625 " fill-opacity="1" fill-rule="nonzero"/></g><g clip-path="url(#1ba1a8336b)"><path fill="#d9d9d9" d="M 10.957031 32.40625 C 13.535156 29.734375 15.207031 28.015625 16.792969 26.386719 C 16.84375 26.316406 16.90625 26.257812 16.984375 26.210938 L 20.585938 22.558594 C 20.589844 22.5625 20.59375 22.566406 20.59375 22.566406 C 20.601562 22.5625 20.605469 22.554688 20.613281 22.550781 C 20.613281 22.550781 20.613281 22.550781 20.609375 22.550781 C 23.238281 19.925781 25.789062 17.234375 28.503906 14.722656 C 28.925781 14.335938 29.28125 13.941406 30.160156 12.800781 L 30.160156 5.722656 C 25.390625 10.660156 21.195312 14.867188 16.914062 19.167969 C 16.910156 19.164062 16.910156 19.164062 16.90625 19.160156 L 13.390625 22.726562 C 13.402344 22.738281 13.410156 22.746094 13.421875 22.757812 C 13.089844 23.070312 12.742188 23.410156 12.082031 24.058594 C 11.761719 24.375 11.367188 24.761719 10.863281 25.257812 L 10.863281 32.40625 Z M 10.957031 32.40625 " fill-opacity="1" fill-rule="nonzero"/></g><g clip-path="url(#397d5eb6cc)"><path fill="#d9d9d9" d="M 30.164062 32.40625 L 30.164062 15.339844 C 27.527344 17.988281 25.015625 20.507812 22.574219 22.964844 C 22.566406 22.957031 22.558594 22.949219 22.550781 22.941406 L 18.910156 26.632812 C 18.921875 26.644531 18.933594 26.652344 18.945312 26.664062 C 17.980469 27.621094 17.019531 28.574219 16.066406 29.523438 C 15.09375 30.488281 14.128906 31.445312 13.160156 32.40625 L 20.261719 32.40625 C 21.847656 30.828125 23.429688 29.25 25.011719 27.671875 C 25.132812 27.546875 25.277344 27.449219 25.527344 27.242188 L 25.527344 32.40625 Z M 30.164062 32.40625 " fill-opacity="1" fill-rule="nonzero"/></g></svg>