<svg xmlns="http://www.w3.org/2000/svg" xmlns:xlink="http://www.w3.org/1999/xlink" width="200" zoomAndPan="magnify" viewBox="0 0 150 37.5" height="50" preserveAspectRatio="xMidYMid meet" version="1.0"><defs><g/></defs><g fill="#eaf0ec" fill-opacity="1"><g transform="translate(1.229994, 24.521951)"><g><path d="M 8.71875 0 L 5.4375 -11.328125 L 4.734375 0 L 0.921875 0 L 1.359375 -7.25 C 1.546875 -10.1875 1.6875 -12.597656 1.78125 -14.484375 L 8.234375 -14.484375 L 10.515625 -5.984375 L 12.796875 -14.484375 L 19.25 -14.484375 C 19.351562 -12.597656 19.492188 -10.1875 19.671875 -7.25 L 20.125 0 L 16.3125 0 L 15.59375 -11.328125 L 12.328125 0 Z M 8.71875 0 "/></g></g></g><g fill="#eaf0ec" fill-opacity="1"><g transform="translate(22.258984, 24.521951)"><g><path d="M 6.609375 -2.46875 C 7.171875 -2.507812 7.628906 -2.726562 7.984375 -3.125 C 8.347656 -3.53125 8.53125 -4.015625 8.53125 -4.578125 L 8.53125 -10.515625 L 12.34375 -10.515625 L 12.34375 0 L 8.65625 0 L 8.53125 -1.015625 C 7.675781 -0.234375 6.582031 0.15625 5.25 0.15625 C 3.894531 0.15625 2.832031 -0.257812 2.0625 -1.09375 C 1.300781 -1.925781 0.921875 -3.085938 0.921875 -4.578125 L 0.921875 -10.515625 L 4.734375 -10.515625 L 4.734375 -4.921875 C 4.734375 -3.285156 5.359375 -2.46875 6.609375 -2.46875 Z M 6.609375 -2.46875 "/></g></g></g><g fill="#eaf0ec" fill-opacity="1"><g transform="translate(35.767018, 24.521951)"><g><path d="M 11.21875 -3.484375 C 11.21875 -2.316406 10.765625 -1.414062 9.859375 -0.78125 C 8.960938 -0.15625 7.6875 0.15625 6.03125 0.15625 C 2.882812 0.15625 1.097656 -1.035156 0.671875 -3.421875 L 4.3125 -3.421875 C 4.519531 -2.785156 5.054688 -2.46875 5.921875 -2.46875 C 6.910156 -2.46875 7.40625 -2.691406 7.40625 -3.140625 C 7.40625 -3.285156 7.226562 -3.410156 6.875 -3.515625 L 5.4375 -3.8125 C 4.71875 -3.925781 4.125 -4.046875 3.65625 -4.171875 C 3.195312 -4.296875 2.722656 -4.472656 2.234375 -4.703125 C 1.753906 -4.929688 1.394531 -5.234375 1.15625 -5.609375 C 0.914062 -5.992188 0.796875 -6.457031 0.796875 -7 C 0.796875 -8.1875 1.21875 -9.109375 2.0625 -9.765625 C 2.914062 -10.429688 4.148438 -10.765625 5.765625 -10.765625 C 8.734375 -10.765625 10.441406 -9.578125 10.890625 -7.203125 L 7.203125 -7.203125 C 7.117188 -7.429688 7.039062 -7.597656 6.96875 -7.703125 C 6.894531 -7.816406 6.757812 -7.914062 6.5625 -8 C 6.363281 -8.09375 6.097656 -8.140625 5.765625 -8.140625 C 4.992188 -8.140625 4.609375 -7.910156 4.609375 -7.453125 C 4.609375 -7.316406 4.679688 -7.195312 4.828125 -7.09375 C 4.972656 -6.988281 5.1875 -6.894531 5.46875 -6.8125 C 5.75 -6.738281 6.015625 -6.671875 6.265625 -6.609375 C 6.523438 -6.554688 6.847656 -6.5 7.234375 -6.4375 C 7.628906 -6.375 7.914062 -6.320312 8.09375 -6.28125 C 9.082031 -6.070312 9.847656 -5.75 10.390625 -5.3125 C 10.941406 -4.882812 11.21875 -4.273438 11.21875 -3.484375 Z M 11.21875 -3.484375 "/></g></g></g><g fill="#eaf0ec" fill-opacity="1"><g transform="translate(47.518514, 24.521951)"><g><path d="M 4.96875 -4.703125 L 4.96875 0 L 1.15625 0 L 1.15625 -14.484375 L 4.96875 -14.484375 L 4.96875 -6.984375 L 5.421875 -6.984375 L 8.359375 -10.515625 L 12.890625 -10.515625 L 8.890625 -5.625 L 12.875 0 L 8.359375 0 Z M 4.96875 -4.703125 "/></g></g></g><g fill="#eaf0ec" fill-opacity="1"><g transform="translate(60.581231, 24.521951)"><g/></g></g><g fill="#eaf0ec" fill-opacity="1"><g transform="translate(65.257088, 24.521951)"><g><path d="M 15.421875 0 L 11.390625 0 L 10.375 -2.9375 L 5.21875 -2.9375 L 4.203125 0 L 0.171875 0 L 4.921875 -14.484375 L 10.671875 -14.484375 Z M 9.734375 -5.9375 L 7.796875 -11.875 L 5.859375 -5.9375 Z M 9.734375 -5.9375 "/></g></g></g><g fill="#eaf0ec" fill-opacity="1"><g transform="translate(80.843283, 24.521951)"><g><path d="M 4.921875 -3.546875 C 4.921875 -2.816406 5.394531 -2.414062 6.34375 -2.34375 L 6.34375 0.15625 C 5.894531 0.226562 5.378906 0.265625 4.796875 0.265625 C 2.335938 0.265625 1.109375 -1.300781 1.109375 -4.4375 L 1.109375 -14.484375 L 4.921875 -14.484375 Z M 4.921875 -3.546875 "/></g></g></g><g fill="#eaf0ec" fill-opacity="1"><g transform="translate(87.671521, 24.521951)"><g><path d="M 4.96875 -9.484375 C 5.613281 -10.335938 6.695312 -10.765625 8.21875 -10.765625 C 9.570312 -10.765625 10.640625 -10.347656 11.421875 -9.515625 C 12.203125 -8.679688 12.59375 -7.519531 12.59375 -6.03125 L 12.59375 0 L 8.78125 0 L 8.78125 -5.6875 C 8.78125 -7.320312 8.195312 -8.140625 7.03125 -8.140625 C 6.519531 -8.140625 6.046875 -7.929688 5.609375 -7.515625 C 5.179688 -7.109375 4.96875 -6.640625 4.96875 -6.109375 L 4.96875 0 L 1.15625 0 L 1.15625 -14.484375 L 4.96875 -14.484375 Z M 4.96875 -9.484375 "/></g></g></g><g fill="#eaf0ec" fill-opacity="1"><g transform="translate(101.179555, 24.521951)"><g><path d="M 8 -6.65625 C 8 -7.644531 7.421875 -8.140625 6.265625 -8.140625 C 5.359375 -8.140625 4.78125 -7.898438 4.53125 -7.421875 L 1.15625 -7.421875 C 1.789062 -9.648438 3.453125 -10.765625 6.140625 -10.765625 C 8.265625 -10.765625 9.738281 -10.34375 10.5625 -9.5 C 11.394531 -8.65625 11.8125 -7.226562 11.8125 -5.21875 L 11.8125 0 L 8.171875 0 L 8 -1.015625 C 7.1875 -0.234375 5.945312 0.15625 4.28125 0.15625 C 3.289062 0.15625 2.441406 -0.125 1.734375 -0.6875 C 1.023438 -1.25 0.671875 -2.066406 0.671875 -3.140625 C 0.671875 -3.878906 0.890625 -4.492188 1.328125 -4.984375 C 1.765625 -5.484375 2.375 -5.84375 3.15625 -6.0625 C 3.9375 -6.289062 4.695312 -6.445312 5.4375 -6.53125 C 6.1875 -6.613281 7.039062 -6.65625 8 -6.65625 Z M 4.484375 -3.265625 C 4.484375 -3.015625 4.578125 -2.828125 4.765625 -2.703125 C 4.953125 -2.585938 5.144531 -2.519531 5.34375 -2.5 C 5.539062 -2.476562 5.835938 -2.46875 6.234375 -2.46875 C 6.773438 -2.46875 7.363281 -2.703125 8 -3.171875 L 8 -4.3125 C 7.132812 -4.3125 6.332031 -4.226562 5.59375 -4.0625 C 4.851562 -3.894531 4.484375 -3.628906 4.484375 -3.265625 Z M 4.484375 -3.265625 "/></g></g></g><g fill="#eaf0ec" fill-opacity="1"><g transform="translate(113.77221, 24.521951)"><g><path d="M 8.78125 -10.515625 L 13 -10.515625 L 9.359375 -0.421875 C 8.566406 1.804688 7.5625 3.316406 6.34375 4.109375 C 5.664062 4.535156 4.820312 4.75 3.8125 4.75 C 2.632812 4.75 1.71875 4.664062 1.0625 4.5 C 1.007812 4.488281 0.945312 4.382812 0.875 4.1875 C 0.800781 3.988281 0.710938 3.707031 0.609375 3.34375 C 0.515625 2.976562 0.460938 2.753906 0.453125 2.671875 L 0.453125 1.6875 C 1.003906 1.894531 1.53125 2 2.03125 2 C 2.71875 2 3.207031 1.863281 3.5 1.59375 C 3.789062 1.320312 3.9375 0.847656 3.9375 0.171875 C 3.9375 -0.109375 3.878906 -0.40625 3.765625 -0.71875 L 0.171875 -10.515625 L 4.328125 -10.515625 L 6.578125 -2.46875 Z M 0.453125 4.25 C 0.316406 3.019531 0.28125 2.40625 0.34375 2.40625 C 0.363281 2.414062 0.398438 2.503906 0.453125 2.671875 Z M 0.453125 4.25 "/></g></g></g><g fill="#eaf0ec" fill-opacity="1"><g transform="translate(126.933886, 24.521951)"><g><path d="M 8 -6.65625 C 8 -7.644531 7.421875 -8.140625 6.265625 -8.140625 C 5.359375 -8.140625 4.78125 -7.898438 4.53125 -7.421875 L 1.15625 -7.421875 C 1.789062 -9.648438 3.453125 -10.765625 6.140625 -10.765625 C 8.265625 -10.765625 9.738281 -10.34375 10.5625 -9.5 C 11.394531 -8.65625 11.8125 -7.226562 11.8125 -5.21875 L 11.8125 0 L 8.171875 0 L 8 -1.015625 C 7.1875 -0.234375 5.945312 0.15625 4.28125 0.15625 C 3.289062 0.15625 2.441406 -0.125 1.734375 -0.6875 C 1.023438 -1.25 0.671875 -2.066406 0.671875 -3.140625 C 0.671875 -3.878906 0.890625 -4.492188 1.328125 -4.984375 C 1.765625 -5.484375 2.375 -5.84375 3.15625 -6.0625 C 3.9375 -6.289062 4.695312 -6.445312 5.4375 -6.53125 C 6.1875 -6.613281 7.039062 -6.65625 8 -6.65625 Z M 4.484375 -3.265625 C 4.484375 -3.015625 4.578125 -2.828125 4.765625 -2.703125 C 4.953125 -2.585938 5.144531 -2.519531 5.34375 -2.5 C 5.539062 -2.476562 5.835938 -2.46875 6.234375 -2.46875 C 6.773438 -2.46875 7.363281 -2.703125 8 -3.171875 L 8 -4.3125 C 7.132812 -4.3125 6.332031 -4.226562 5.59375 -4.0625 C 4.851562 -3.894531 4.484375 -3.628906 4.484375 -3.265625 Z M 4.484375 -3.265625 "/></g></g></g><g fill="#eaf0ec" fill-opacity="1"><g transform="translate(139.52654, 24.521951)"><g><path d="M 5.984375 0.15625 C 3.484375 0.15625 2.234375 -1.460938 2.234375 -4.703125 L 2.234375 -7.890625 L 0.421875 -7.890625 L 0.421875 -10.515625 L 2.234375 -10.515625 L 2.234375 -13.640625 L 6.03125 -14.609375 L 6.03125 -10.515625 L 8.4375 -10.515625 L 8.4375 -7.890625 L 6.03125 -7.890625 L 6.03125 -4.28125 C 6.03125 -3.351562 6.53125 -2.890625 7.53125 -2.890625 L 7.96875 -2.890625 C 8.113281 -2.890625 8.269531 -2.90625 8.4375 -2.9375 L 8.4375 -0.15625 C 7.863281 0.0078125 7.046875 0.113281 5.984375 0.15625 Z M 5.984375 0.15625 "/></g></g></g></svg>