<svg xmlns="http://www.w3.org/2000/svg" xmlns:xlink="http://www.w3.org/1999/xlink" width="200" zoomAndPan="magnify" viewBox="0 0 150 37.5" height="50" preserveAspectRatio="xMidYMid meet" version="1.0"><defs><g/><clipPath id="0cb343dd08"><path d="M 0.988281 0 L 18 0 L 18 37 L 0.988281 37 Z M 0.988281 0 " clip-rule="nonzero"/></clipPath><clipPath id="281914bab0"><path d="M 10 1 L 35.773438 1 L 35.773438 37 L 10 37 Z M 10 1 " clip-rule="nonzero"/></clipPath><clipPath id="aab75ee30b"><path d="M 13 14 L 35.773438 14 L 35.773438 37 L 13 37 Z M 13 14 " clip-rule="nonzero"/></clipPath></defs><g clip-path="url(#0cb343dd08)"><path fill="#eaf0ec" d="M 7.609375 36.964844 L 7.609375 16.042969 C 9.425781 17.878906 11.191406 19.65625 13.019531 21.503906 L 17.703125 16.785156 C 12.078125 11.152344 6.539062 5.601562 0.988281 0.0390625 L 0.988281 36.964844 Z M 7.609375 36.964844 " fill-opacity="1" fill-rule="nonzero"/></g><g clip-path="url(#281914bab0)"><path fill="#eaf0ec" d="M 10.449219 36.964844 C 13.875 33.421875 16.09375 31.136719 18.199219 28.976562 C 18.265625 28.882812 18.347656 28.804688 18.449219 28.742188 L 23.234375 23.890625 C 23.238281 23.894531 23.246094 23.902344 23.25 23.90625 C 23.253906 23.898438 23.261719 23.890625 23.269531 23.882812 C 23.269531 23.878906 23.269531 23.878906 23.269531 23.878906 C 26.757812 20.394531 30.144531 16.824219 33.75 13.488281 C 34.308594 12.972656 34.785156 12.453125 35.949219 10.9375 L 35.949219 1.539062 C 29.613281 8.089844 24.046875 13.679688 18.359375 19.386719 C 18.355469 19.382812 18.355469 19.382812 18.351562 19.378906 L 13.683594 24.117188 C 13.695312 24.128906 13.707031 24.144531 13.722656 24.15625 C 13.28125 24.570312 12.816406 25.023438 11.941406 25.882812 C 11.515625 26.304688 10.992188 26.820312 10.324219 27.476562 L 10.324219 36.964844 Z M 10.449219 36.964844 " fill-opacity="1" fill-rule="nonzero"/></g><g clip-path="url(#aab75ee30b)"><path fill="#eaf0ec" d="M 35.957031 36.964844 L 35.957031 14.304688 C 32.453125 17.820312 29.121094 21.171875 25.875 24.429688 C 25.863281 24.421875 25.855469 24.410156 25.84375 24.402344 L 21.011719 29.304688 C 21.027344 29.316406 21.042969 29.328125 21.058594 29.34375 C 19.773438 30.617188 18.503906 31.882812 17.234375 33.136719 C 15.941406 34.421875 14.660156 35.695312 13.375 36.96875 L 22.800781 36.96875 C 24.910156 34.875 27.007812 32.773438 29.109375 30.679688 C 29.273438 30.515625 29.464844 30.386719 29.796875 30.109375 L 29.796875 36.96875 L 35.957031 36.96875 Z M 35.957031 36.964844 " fill-opacity="1" fill-rule="nonzero"/></g><g fill="#eaf0ec" fill-opacity="1"><g transform="translate(39.418256, 22.911368)"><g><path d="M 11.84375 -11.734375 L 14.6875 -11.734375 L 14.6875 0 L 11.484375 0 L 11.484375 -6.359375 L 8.640625 -2.78125 L 7.21875 -2.78125 L 4.375 -6.359375 L 4.375 0 L 1.171875 0 L 1.171875 -11.734375 L 4.03125 -11.734375 L 7.9375 -6.5625 Z M 11.84375 -11.734375 "/></g></g></g><g fill="#eaf0ec" fill-opacity="1"><g transform="translate(55.273116, 22.911368)"><g><path d="M 3.90625 0.25 C 2.882812 0.25 2.117188 -0.0234375 1.609375 -0.578125 C 1.097656 -1.128906 0.84375 -1.898438 0.84375 -2.890625 L 0.84375 -8.046875 L 3.65625 -8.046875 L 3.65625 -3.25 C 3.65625 -2.945312 3.71875 -2.703125 3.84375 -2.515625 C 3.976562 -2.328125 4.140625 -2.191406 4.328125 -2.109375 C 4.515625 -2.023438 4.6875 -1.984375 4.84375 -1.984375 C 5.019531 -1.984375 5.207031 -2.019531 5.40625 -2.09375 C 5.613281 -2.175781 5.789062 -2.304688 5.9375 -2.484375 C 6.09375 -2.660156 6.175781 -2.898438 6.1875 -3.203125 L 6.1875 -8.046875 L 9 -8.046875 L 9 0 L 6.1875 0 L 6.1875 -0.78125 C 5.9375 -0.507812 5.601562 -0.269531 5.1875 -0.0625 C 4.769531 0.144531 4.34375 0.25 3.90625 0.25 Z M 3.90625 0.25 "/></g></g></g><g fill="#eaf0ec" fill-opacity="1"><g transform="translate(65.111174, 22.911368)"><g><path d="M 3.8125 -5.765625 C 3.8125 -5.578125 3.898438 -5.421875 4.078125 -5.296875 C 4.253906 -5.179688 4.476562 -5.078125 4.75 -4.984375 C 5.019531 -4.898438 5.304688 -4.800781 5.609375 -4.6875 C 5.921875 -4.570312 6.210938 -4.421875 6.484375 -4.234375 C 6.765625 -4.046875 6.988281 -3.796875 7.15625 -3.484375 C 7.332031 -3.179688 7.421875 -2.796875 7.421875 -2.328125 C 7.410156 -1.578125 7.125 -0.957031 6.5625 -0.46875 C 6 0.0078125 5.128906 0.25 3.953125 0.25 C 3.609375 0.25 3.226562 0.203125 2.8125 0.109375 C 2.40625 0.0234375 2 -0.0976562 1.59375 -0.265625 C 1.1875 -0.429688 0.820312 -0.632812 0.5 -0.875 L 1.359375 -2.734375 C 1.671875 -2.492188 2.007812 -2.300781 2.375 -2.15625 C 2.738281 -2.007812 3.082031 -1.910156 3.40625 -1.859375 C 3.738281 -1.816406 4.015625 -1.828125 4.234375 -1.890625 C 4.453125 -1.953125 4.570312 -2.066406 4.59375 -2.234375 C 4.613281 -2.441406 4.535156 -2.609375 4.359375 -2.734375 C 4.191406 -2.867188 3.960938 -2.984375 3.671875 -3.078125 C 3.390625 -3.179688 3.085938 -3.296875 2.765625 -3.421875 C 2.441406 -3.554688 2.132812 -3.726562 1.84375 -3.9375 C 1.5625 -4.15625 1.335938 -4.4375 1.171875 -4.78125 C 1.003906 -5.125 0.929688 -5.570312 0.953125 -6.125 C 0.992188 -6.84375 1.328125 -7.410156 1.953125 -7.828125 C 2.578125 -8.242188 3.46875 -8.40625 4.625 -8.3125 C 5.019531 -8.289062 5.410156 -8.234375 5.796875 -8.140625 C 6.179688 -8.046875 6.507812 -7.945312 6.78125 -7.84375 C 7.050781 -7.75 7.21875 -7.671875 7.28125 -7.609375 L 6.453125 -5.734375 C 6.191406 -5.929688 5.90625 -6.078125 5.59375 -6.171875 C 5.289062 -6.273438 5.003906 -6.320312 4.734375 -6.3125 C 4.460938 -6.300781 4.238281 -6.25 4.0625 -6.15625 C 3.894531 -6.070312 3.8125 -5.941406 3.8125 -5.765625 Z M 3.8125 -5.765625 "/></g></g></g><g fill="#eaf0ec" fill-opacity="1"><g transform="translate(73.038604, 22.911368)"><g><path d="M 8.984375 0 L 5.90625 0 L 3.65625 -3.609375 L 3.65625 0 L 0.84375 0 L 0.84375 -11.734375 L 3.65625 -11.734375 L 3.65625 -4.625 L 5.578125 -8.046875 L 8.671875 -8.046875 L 6.34375 -4.140625 Z M 8.984375 0 "/></g></g></g><g fill="#eaf0ec" fill-opacity="1"><g transform="translate(81.85431, 22.911368)"><g/></g></g><g fill="#eaf0ec" fill-opacity="1"><g transform="translate(86.17837, 22.911368)"><g><path d="M 8.90625 0 L 8.1875 -2.078125 L 4.453125 -2.078125 L 3.734375 0 L 0.171875 0 L 4.59375 -11.734375 L 8.03125 -11.734375 L 12.46875 0 Z M 5.421875 -4.796875 L 7.21875 -4.796875 L 6.328125 -7.375 Z M 5.421875 -4.796875 "/></g></g></g><g fill="#eaf0ec" fill-opacity="1"><g transform="translate(98.81533, 22.911368)"><g><path d="M 3.65625 -11.734375 L 3.65625 0 L 0.84375 0 L 0.84375 -11.734375 Z M 3.65625 -11.734375 "/></g></g></g><g fill="#eaf0ec" fill-opacity="1"><g transform="translate(103.306977, 22.911368)"><g><path d="M 5.9375 -8.3125 C 6.96875 -8.3125 7.734375 -8.03125 8.234375 -7.46875 C 8.742188 -6.914062 9 -6.144531 9 -5.15625 L 9 0 L 6.1875 0 L 6.1875 -4.8125 C 6.1875 -5.125 6.117188 -5.367188 5.984375 -5.546875 C 5.859375 -5.734375 5.703125 -5.867188 5.515625 -5.953125 C 5.335938 -6.035156 5.164062 -6.078125 5 -6.078125 C 4.832031 -6.078125 4.644531 -6.035156 4.4375 -5.953125 C 4.226562 -5.878906 4.046875 -5.753906 3.890625 -5.578125 C 3.742188 -5.398438 3.664062 -5.160156 3.65625 -4.859375 L 3.65625 0 L 0.84375 0 L 0.84375 -11.734375 L 3.65625 -11.734375 L 3.65625 -7.28125 C 3.90625 -7.5625 4.238281 -7.800781 4.65625 -8 C 5.070312 -8.207031 5.5 -8.3125 5.9375 -8.3125 Z M 5.9375 -8.3125 "/></g></g></g><g fill="#eaf0ec" fill-opacity="1"><g transform="translate(113.145034, 22.911368)"><g><path d="M 4.5 -8.3125 C 4.9375 -8.3125 5.367188 -8.265625 5.796875 -8.171875 C 6.234375 -8.078125 6.628906 -7.910156 6.984375 -7.671875 C 7.335938 -7.429688 7.613281 -7.109375 7.8125 -6.703125 C 8.019531 -6.304688 8.125 -5.789062 8.125 -5.15625 C 8.125 -4.570312 8.125 -3.972656 8.125 -3.359375 C 8.125 -2.753906 8.125 -2.195312 8.125 -1.6875 C 8.125 -1.175781 8.125 -0.765625 8.125 -0.453125 C 8.125 -0.148438 8.125 0 8.125 0 L 5.3125 0 L 5.3125 -0.78125 C 4.800781 -0.09375 4.015625 0.25 2.953125 0.25 C 2.835938 0.25 2.648438 0.21875 2.390625 0.15625 C 2.140625 0.101562 1.867188 0 1.578125 -0.15625 C 1.296875 -0.320312 1.050781 -0.5625 0.84375 -0.875 C 0.644531 -1.1875 0.535156 -1.597656 0.515625 -2.109375 C 0.503906 -2.691406 0.609375 -3.171875 0.828125 -3.546875 C 1.046875 -3.929688 1.332031 -4.226562 1.6875 -4.4375 C 2.050781 -4.644531 2.425781 -4.78125 2.8125 -4.84375 C 3.070312 -4.882812 3.359375 -4.921875 3.671875 -4.953125 C 3.984375 -4.984375 4.285156 -5.007812 4.578125 -5.03125 C 4.878906 -5.050781 5.125 -5.0625 5.3125 -5.0625 C 5.3125 -5.175781 5.28125 -5.316406 5.21875 -5.484375 C 5.164062 -5.648438 5.054688 -5.796875 4.890625 -5.921875 C 4.722656 -6.054688 4.472656 -6.125 4.140625 -6.125 C 3.585938 -6.125 3.085938 -6.035156 2.640625 -5.859375 C 2.191406 -5.691406 1.867188 -5.5625 1.671875 -5.46875 L 0.90625 -7.296875 C 1.101562 -7.441406 1.382812 -7.59375 1.75 -7.75 C 2.113281 -7.90625 2.53125 -8.035156 3 -8.140625 C 3.46875 -8.253906 3.96875 -8.3125 4.5 -8.3125 Z M 4.28125 -1.859375 C 4.675781 -1.859375 4.945312 -1.957031 5.09375 -2.15625 C 5.238281 -2.363281 5.3125 -2.550781 5.3125 -2.71875 C 5.3125 -2.800781 5.3125 -2.910156 5.3125 -3.046875 C 5.3125 -3.179688 5.3125 -3.304688 5.3125 -3.421875 C 5.3125 -3.535156 5.3125 -3.59375 5.3125 -3.59375 C 5.3125 -3.59375 5.210938 -3.59375 5.015625 -3.59375 C 4.816406 -3.59375 4.585938 -3.570312 4.328125 -3.53125 C 4.078125 -3.488281 3.867188 -3.40625 3.703125 -3.28125 C 3.503906 -3.144531 3.394531 -2.960938 3.375 -2.734375 C 3.351562 -2.503906 3.414062 -2.300781 3.5625 -2.125 C 3.707031 -1.945312 3.945312 -1.859375 4.28125 -1.859375 Z M 4.28125 -1.859375 "/></g></g></g><g fill="#eaf0ec" fill-opacity="1"><g transform="translate(122.111571, 22.911368)"><g><path d="M 6.359375 -8.046875 L 9.4375 -8.046875 C 9.4375 -8.046875 9.382812 -7.90625 9.28125 -7.625 C 9.1875 -7.34375 9.054688 -6.976562 8.890625 -6.53125 C 8.722656 -6.09375 8.539062 -5.613281 8.34375 -5.09375 C 8.15625 -4.570312 7.96875 -4.066406 7.78125 -3.578125 C 7.601562 -3.085938 7.453125 -2.671875 7.328125 -2.328125 C 7.210938 -2.003906 7.066406 -1.597656 6.890625 -1.109375 C 6.710938 -0.617188 6.5 -0.0976562 6.25 0.453125 C 6 1.003906 5.695312 1.523438 5.34375 2.015625 C 4.988281 2.515625 4.578125 2.925781 4.109375 3.25 C 3.648438 3.582031 3.125 3.773438 2.53125 3.828125 C 2.070312 3.859375 1.660156 3.8125 1.296875 3.6875 C 0.941406 3.570312 0.664062 3.453125 0.46875 3.328125 C 0.269531 3.203125 0.171875 3.140625 0.171875 3.140625 L 1.0625 1.015625 C 1.519531 1.242188 1.910156 1.3125 2.234375 1.21875 C 2.566406 1.125 2.847656 0.914062 3.078125 0.59375 C 3.304688 0.28125 3.488281 -0.101562 3.625 -0.5625 L 0.3125 -8.046875 L 3.453125 -8.046875 L 5.03125 -3.34375 Z M 6.359375 -8.046875 "/></g></g></g><g fill="#eaf0ec" fill-opacity="1"><g transform="translate(132.050193, 22.911368)"><g><path d="M 4.5 -8.3125 C 4.9375 -8.3125 5.367188 -8.265625 5.796875 -8.171875 C 6.234375 -8.078125 6.628906 -7.910156 6.984375 -7.671875 C 7.335938 -7.429688 7.613281 -7.109375 7.8125 -6.703125 C 8.019531 -6.304688 8.125 -5.789062 8.125 -5.15625 C 8.125 -4.570312 8.125 -3.972656 8.125 -3.359375 C 8.125 -2.753906 8.125 -2.195312 8.125 -1.6875 C 8.125 -1.175781 8.125 -0.765625 8.125 -0.453125 C 8.125 -0.148438 8.125 0 8.125 0 L 5.3125 0 L 5.3125 -0.78125 C 4.800781 -0.09375 4.015625 0.25 2.953125 0.25 C 2.835938 0.25 2.648438 0.21875 2.390625 0.15625 C 2.140625 0.101562 1.867188 0 1.578125 -0.15625 C 1.296875 -0.320312 1.050781 -0.5625 0.84375 -0.875 C 0.644531 -1.1875 0.535156 -1.597656 0.515625 -2.109375 C 0.503906 -2.691406 0.609375 -3.171875 0.828125 -3.546875 C 1.046875 -3.929688 1.332031 -4.226562 1.6875 -4.4375 C 2.050781 -4.644531 2.425781 -4.78125 2.8125 -4.84375 C 3.070312 -4.882812 3.359375 -4.921875 3.671875 -4.953125 C 3.984375 -4.984375 4.285156 -5.007812 4.578125 -5.03125 C 4.878906 -5.050781 5.125 -5.0625 5.3125 -5.0625 C 5.3125 -5.175781 5.28125 -5.316406 5.21875 -5.484375 C 5.164062 -5.648438 5.054688 -5.796875 4.890625 -5.921875 C 4.722656 -6.054688 4.472656 -6.125 4.140625 -6.125 C 3.585938 -6.125 3.085938 -6.035156 2.640625 -5.859375 C 2.191406 -5.691406 1.867188 -5.5625 1.671875 -5.46875 L 0.90625 -7.296875 C 1.101562 -7.441406 1.382812 -7.59375 1.75 -7.75 C 2.113281 -7.90625 2.53125 -8.035156 3 -8.140625 C 3.46875 -8.253906 3.96875 -8.3125 4.5 -8.3125 Z M 4.28125 -1.859375 C 4.675781 -1.859375 4.945312 -1.957031 5.09375 -2.15625 C 5.238281 -2.363281 5.3125 -2.550781 5.3125 -2.71875 C 5.3125 -2.800781 5.3125 -2.910156 5.3125 -3.046875 C 5.3125 -3.179688 5.3125 -3.304688 5.3125 -3.421875 C 5.3125 -3.535156 5.3125 -3.59375 5.3125 -3.59375 C 5.3125 -3.59375 5.210938 -3.59375 5.015625 -3.59375 C 4.816406 -3.59375 4.585938 -3.570312 4.328125 -3.53125 C 4.078125 -3.488281 3.867188 -3.40625 3.703125 -3.28125 C 3.503906 -3.144531 3.394531 -2.960938 3.375 -2.734375 C 3.351562 -2.503906 3.414062 -2.300781 3.5625 -2.125 C 3.707031 -1.945312 3.945312 -1.859375 4.28125 -1.859375 Z M 4.28125 -1.859375 "/></g></g></g><g fill="#eaf0ec" fill-opacity="1"><g transform="translate(141.01673, 22.911368)"><g><path d="M 6.046875 -2.609375 L 6.671875 -0.296875 C 6.515625 -0.203125 6.210938 -0.0859375 5.765625 0.046875 C 5.328125 0.179688 4.8125 0.25 4.21875 0.25 C 3.570312 0.25 3.050781 0.140625 2.65625 -0.078125 C 2.269531 -0.304688 1.976562 -0.617188 1.78125 -1.015625 C 1.582031 -1.410156 1.453125 -1.859375 1.390625 -2.359375 C 1.328125 -2.867188 1.296875 -3.394531 1.296875 -3.9375 C 1.296875 -4.09375 1.296875 -4.304688 1.296875 -4.578125 C 1.296875 -4.859375 1.296875 -5.171875 1.296875 -5.515625 L 0.171875 -5.515625 L 0.171875 -8.046875 L 1.296875 -8.046875 C 1.296875 -8.535156 1.296875 -8.945312 1.296875 -9.28125 C 1.296875 -9.613281 1.296875 -9.78125 1.296875 -9.78125 L 4.125 -10.125 C 4.125 -10.125 4.125 -9.921875 4.125 -9.515625 C 4.125 -9.109375 4.125 -8.617188 4.125 -8.046875 L 6.203125 -8.046875 L 6.203125 -5.515625 L 4.125 -5.515625 C 4.125 -5.140625 4.125 -4.8125 4.125 -4.53125 C 4.125 -4.257812 4.125 -4.082031 4.125 -4 C 4.125 -3.238281 4.289062 -2.742188 4.625 -2.515625 C 4.96875 -2.285156 5.441406 -2.316406 6.046875 -2.609375 Z M 6.046875 -2.609375 "/></g></g></g><g fill="#eaf0ec" fill-opacity="1"><g transform="translate(148.028382, 22.911368)"><g/></g></g></svg>